<svg xmlns="http://www.w3.org/2000/svg" xmlns:xlink="http://www.w3.org/1999/xlink" width="64" zoomAndPan="magnify" viewBox="0 0 48 48" height="64" preserveAspectRatio="xMidYMid meet" version="1.0"><defs><clipPath id="2297df34b9"><path d="M 0.488281 0 L 47.507812 0 L 47.507812 47.019531 L 0.488281 47.019531 Z M 0.488281 0 " clip-rule="nonzero"/></clipPath><clipPath id="0bb03c5470"><path d="M 0.488281 11 L 27 11 L 27 35 L 0.488281 35 Z M 0.488281 11 " clip-rule="nonzero"/></clipPath><clipPath id="32cc4c682b"><path d="M 42 18 L 47.507812 18 L 47.507812 28 L 42 28 Z M 42 18 " clip-rule="nonzero"/></clipPath><clipPath id="07fb8652be"><path d="M 19 0.855469 L 46 0.855469 L 46 24 L 19 24 Z M 19 0.855469 " clip-rule="nonzero"/></clipPath><clipPath id="6c7ebdca43"><path d="M 0.488281 3 L 3 3 L 3 6 L 0.488281 6 Z M 0.488281 3 " clip-rule="nonzero"/></clipPath><clipPath id="ee0dbc4796"><path d="M 0.488281 6 L 3 6 L 3 9 L 0.488281 9 Z M 0.488281 6 " clip-rule="nonzero"/></clipPath><clipPath id="847094d221"><path d="M 0.488281 9 L 3 9 L 3 11 L 0.488281 11 Z M 0.488281 9 " clip-rule="nonzero"/></clipPath><clipPath id="1c017eb949"><path d="M 0.488281 12 L 3 12 L 3 14 L 0.488281 14 Z M 0.488281 12 " clip-rule="nonzero"/></clipPath><clipPath id="914049893f"><path d="M 6 36 L 12 36 L 12 46.40625 L 6 46.40625 Z M 6 36 " clip-rule="nonzero"/></clipPath></defs><g clip-path="url(#2297df34b9)"><path fill="#ffffff" d="M 0.488281 0 L 47.511719 0 L 47.511719 47.019531 L 0.488281 47.019531 Z M 0.488281 0 " fill-opacity="1" fill-rule="nonzero"/><path fill="#ffffff" d="M 0.488281 0 L 47.511719 0 L 47.511719 47.019531 L 0.488281 47.019531 Z M 0.488281 0 " fill-opacity="1" fill-rule="nonzero"/></g><g clip-path="url(#0bb03c5470)"><path fill="#21696b" d="M 6.925781 34.179688 L 0.511719 23.074219 L 6.925781 11.960938 L 19.746094 11.960938 L 26.15625 23.074219 L 19.746094 34.179688 Z M 6.925781 34.179688 " fill-opacity="1" fill-rule="nonzero"/></g><g clip-path="url(#32cc4c682b)"><path fill="#21696b" d="M 44.851562 27.535156 L 47.488281 22.941406 L 44.851562 18.375 L 44.851562 18.355469 L 44.851562 18.367188 L 44.84375 18.355469 L 44.84375 18.375 L 42.203125 22.941406 L 44.84375 27.535156 L 44.84375 27.542969 L 44.851562 27.542969 Z M 44.851562 27.535156 " fill-opacity="1" fill-rule="nonzero"/></g><g clip-path="url(#07fb8652be)"><path fill="#333130" d="M 26.230469 23.0625 L 19.816406 11.960938 L 26.230469 0.855469 L 39.050781 0.855469 L 45.46875 11.960938 L 39.050781 23.0625 Z M 26.230469 23.0625 " fill-opacity="1" fill-rule="nonzero"/></g><g clip-path="url(#6c7ebdca43)"><path fill="#bcbaa6" d="M 2.53125 5.238281 L 0.976562 5.25 L 1.753906 3.902344 Z M 2.53125 5.238281 " fill-opacity="1" fill-rule="nonzero"/></g><path fill="#bcbaa6" d="M 5.644531 5.25 L 4.089844 5.25 L 4.867188 3.910156 Z M 5.644531 5.25 " fill-opacity="1" fill-rule="nonzero"/><path fill="#bcbaa6" d="M 8.445312 5.238281 L 6.886719 5.25 L 7.667969 3.902344 Z M 8.445312 5.238281 " fill-opacity="1" fill-rule="nonzero"/><path fill="#bcbaa6" d="M 11.519531 5.238281 L 9.972656 5.25 L 10.742188 3.902344 Z M 11.519531 5.238281 " fill-opacity="1" fill-rule="nonzero"/><path fill="#bcbaa6" d="M 14.488281 5.25 L 12.941406 5.25 L 13.710938 3.910156 Z M 14.488281 5.25 " fill-opacity="1" fill-rule="nonzero"/><g clip-path="url(#ee0dbc4796)"><path fill="#bcbaa6" d="M 2.53125 8.085938 L 0.976562 8.085938 L 1.753906 6.738281 Z M 2.53125 8.085938 " fill-opacity="1" fill-rule="nonzero"/></g><path fill="#bcbaa6" d="M 5.644531 8.097656 L 4.089844 8.097656 L 4.867188 6.75 Z M 5.644531 8.097656 " fill-opacity="1" fill-rule="nonzero"/><path fill="#bcbaa6" d="M 8.445312 8.085938 L 6.886719 8.085938 L 7.667969 6.738281 Z M 8.445312 8.085938 " fill-opacity="1" fill-rule="nonzero"/><path fill="#bcbaa6" d="M 11.519531 8.085938 L 9.972656 8.085938 L 10.742188 6.738281 Z M 11.519531 8.085938 " fill-opacity="1" fill-rule="nonzero"/><path fill="#bcbaa6" d="M 14.488281 8.097656 L 12.941406 8.097656 L 13.710938 6.75 Z M 14.488281 8.097656 " fill-opacity="1" fill-rule="nonzero"/><g clip-path="url(#847094d221)"><path fill="#bcbaa6" d="M 2.53125 10.792969 L 0.976562 10.792969 L 1.753906 9.445312 Z M 2.53125 10.792969 " fill-opacity="1" fill-rule="nonzero"/></g><path fill="#bcbaa6" d="M 5.644531 10.792969 L 4.089844 10.792969 L 4.867188 9.453125 Z M 5.644531 10.792969 " fill-opacity="1" fill-rule="nonzero"/><path fill="#bcbaa6" d="M 8.445312 10.792969 L 6.886719 10.792969 L 7.667969 9.445312 Z M 8.445312 10.792969 " fill-opacity="1" fill-rule="nonzero"/><path fill="#bcbaa6" d="M 11.519531 10.792969 L 9.972656 10.792969 L 10.742188 9.445312 Z M 11.519531 10.792969 " fill-opacity="1" fill-rule="nonzero"/><path fill="#bcbaa6" d="M 14.488281 10.792969 L 12.941406 10.792969 L 13.710938 9.453125 Z M 14.488281 10.792969 " fill-opacity="1" fill-rule="nonzero"/><g clip-path="url(#1c017eb949)"><path fill="#bcbaa6" d="M 2.53125 13.628906 L 0.976562 13.628906 L 1.753906 12.28125 Z M 2.53125 13.628906 " fill-opacity="1" fill-rule="nonzero"/></g><path fill="#bcbaa6" d="M 5.644531 13.640625 L 4.089844 13.640625 L 4.867188 12.292969 Z M 5.644531 13.640625 " fill-opacity="1" fill-rule="nonzero"/><path fill="#bcbaa6" d="M 8.445312 13.628906 L 6.886719 13.628906 L 7.667969 12.28125 Z M 8.445312 13.628906 " fill-opacity="1" fill-rule="nonzero"/><path fill="#bcbaa6" d="M 11.519531 13.628906 L 9.972656 13.628906 L 10.742188 12.28125 Z M 11.519531 13.628906 " fill-opacity="1" fill-rule="nonzero"/><path fill="#bcbaa6" d="M 14.488281 13.640625 L 12.941406 13.640625 L 13.710938 12.292969 Z M 14.488281 13.640625 " fill-opacity="1" fill-rule="nonzero"/><path fill="#bcbaa6" d="M 18.363281 37.214844 C 18.363281 37.390625 18.300781 37.539062 18.175781 37.664062 C 18.050781 37.789062 17.902344 37.851562 17.726562 37.851562 C 17.550781 37.851562 17.402344 37.789062 17.277344 37.664062 C 17.152344 37.539062 17.089844 37.390625 17.089844 37.214844 C 17.089844 37.039062 17.152344 36.890625 17.277344 36.765625 C 17.402344 36.640625 17.550781 36.578125 17.726562 36.578125 C 17.902344 36.578125 18.050781 36.640625 18.175781 36.765625 C 18.300781 36.890625 18.363281 37.039062 18.363281 37.214844 Z M 18.363281 37.214844 " fill-opacity="1" fill-rule="nonzero"/><path fill="#bcbaa6" d="M 20.914062 37.214844 C 20.914062 37.390625 20.851562 37.539062 20.730469 37.664062 C 20.605469 37.789062 20.457031 37.851562 20.28125 37.851562 C 20.105469 37.851562 19.953125 37.789062 19.828125 37.664062 C 19.707031 37.539062 19.644531 37.390625 19.644531 37.214844 C 19.644531 37.039062 19.707031 36.890625 19.828125 36.765625 C 19.953125 36.640625 20.105469 36.578125 20.28125 36.578125 C 20.457031 36.578125 20.605469 36.640625 20.730469 36.765625 C 20.851562 36.890625 20.914062 37.039062 20.914062 37.214844 Z M 20.914062 37.214844 " fill-opacity="1" fill-rule="nonzero"/><path fill="#bcbaa6" d="M 23.375 37.320312 C 23.375 37.496094 23.3125 37.644531 23.1875 37.769531 C 23.0625 37.894531 22.914062 37.957031 22.738281 37.957031 C 22.5625 37.957031 22.414062 37.894531 22.289062 37.769531 C 22.164062 37.644531 22.101562 37.496094 22.101562 37.320312 C 22.101562 37.144531 22.164062 36.992188 22.289062 36.871094 C 22.414062 36.746094 22.5625 36.683594 22.738281 36.683594 C 22.914062 36.683594 23.0625 36.746094 23.1875 36.871094 C 23.3125 36.992188 23.375 37.144531 23.375 37.320312 Z M 23.375 37.320312 " fill-opacity="1" fill-rule="nonzero"/><path fill="#bcbaa6" d="M 25.925781 37.320312 C 25.925781 37.496094 25.863281 37.644531 25.742188 37.769531 C 25.617188 37.894531 25.464844 37.957031 25.289062 37.957031 C 25.113281 37.957031 24.964844 37.894531 24.839844 37.769531 C 24.71875 37.644531 24.65625 37.496094 24.65625 37.320312 C 24.65625 37.144531 24.71875 36.992188 24.839844 36.871094 C 24.964844 36.746094 25.113281 36.683594 25.289062 36.683594 C 25.464844 36.683594 25.617188 36.746094 25.742188 36.871094 C 25.863281 36.992188 25.925781 37.144531 25.925781 37.320312 Z M 25.925781 37.320312 " fill-opacity="1" fill-rule="nonzero"/><path fill="#bcbaa6" d="M 16.796875 39.484375 C 16.796875 39.660156 16.734375 39.808594 16.609375 39.933594 C 16.484375 40.058594 16.335938 40.117188 16.160156 40.117188 C 15.984375 40.117188 15.835938 40.058594 15.710938 39.933594 C 15.585938 39.808594 15.523438 39.660156 15.523438 39.484375 C 15.523438 39.308594 15.585938 39.15625 15.710938 39.035156 C 15.835938 38.910156 15.984375 38.847656 16.160156 38.847656 C 16.335938 38.847656 16.484375 38.910156 16.609375 39.035156 C 16.734375 39.15625 16.796875 39.308594 16.796875 39.484375 Z M 16.796875 39.484375 " fill-opacity="1" fill-rule="nonzero"/><path fill="#bcbaa6" d="M 19.359375 39.484375 C 19.359375 39.660156 19.296875 39.808594 19.171875 39.933594 C 19.046875 40.058594 18.898438 40.117188 18.722656 40.117188 C 18.546875 40.117188 18.398438 40.058594 18.273438 39.933594 C 18.148438 39.808594 18.085938 39.660156 18.085938 39.484375 C 18.085938 39.308594 18.148438 39.15625 18.273438 39.035156 C 18.398438 38.910156 18.546875 38.847656 18.722656 38.847656 C 18.898438 38.847656 19.046875 38.910156 19.171875 39.035156 C 19.296875 39.15625 19.359375 39.308594 19.359375 39.484375 Z M 19.359375 39.484375 " fill-opacity="1" fill-rule="nonzero"/><path fill="#bcbaa6" d="M 21.808594 39.585938 C 21.808594 39.761719 21.746094 39.914062 21.621094 40.039062 C 21.496094 40.160156 21.347656 40.222656 21.171875 40.222656 C 20.996094 40.222656 20.847656 40.160156 20.722656 40.039062 C 20.597656 39.914062 20.535156 39.761719 20.535156 39.585938 C 20.535156 39.410156 20.597656 39.261719 20.722656 39.136719 C 20.847656 39.015625 20.996094 38.953125 21.171875 38.953125 C 21.347656 38.953125 21.496094 39.015625 21.621094 39.136719 C 21.746094 39.261719 21.808594 39.410156 21.808594 39.585938 Z M 21.808594 39.585938 " fill-opacity="1" fill-rule="nonzero"/><path fill="#bcbaa6" d="M 24.371094 39.585938 C 24.371094 39.761719 24.308594 39.914062 24.183594 40.039062 C 24.058594 40.160156 23.910156 40.222656 23.734375 40.222656 C 23.558594 40.222656 23.410156 40.160156 23.285156 40.039062 C 23.160156 39.914062 23.097656 39.761719 23.097656 39.585938 C 23.097656 39.410156 23.160156 39.261719 23.285156 39.136719 C 23.410156 39.015625 23.558594 38.953125 23.734375 38.953125 C 23.910156 38.953125 24.058594 39.015625 24.183594 39.136719 C 24.308594 39.261719 24.371094 39.410156 24.371094 39.585938 Z M 24.371094 39.585938 " fill-opacity="1" fill-rule="nonzero"/><path fill="#bcbaa6" d="M 18.363281 41.617188 C 18.363281 41.792969 18.300781 41.945312 18.175781 42.066406 C 18.050781 42.191406 17.902344 42.253906 17.726562 42.253906 C 17.550781 42.253906 17.402344 42.191406 17.277344 42.066406 C 17.152344 41.945312 17.089844 41.792969 17.089844 41.617188 C 17.089844 41.441406 17.152344 41.292969 17.277344 41.167969 C 17.402344 41.042969 17.550781 40.984375 17.726562 40.984375 C 17.902344 40.984375 18.050781 41.042969 18.175781 41.167969 C 18.300781 41.292969 18.363281 41.441406 18.363281 41.617188 Z M 18.363281 41.617188 " fill-opacity="1" fill-rule="nonzero"/><path fill="#bcbaa6" d="M 20.914062 41.617188 C 20.914062 41.792969 20.851562 41.945312 20.730469 42.066406 C 20.605469 42.191406 20.457031 42.253906 20.28125 42.253906 C 20.105469 42.253906 19.953125 42.191406 19.828125 42.066406 C 19.707031 41.945312 19.644531 41.792969 19.644531 41.617188 C 19.644531 41.441406 19.707031 41.292969 19.828125 41.167969 C 19.953125 41.042969 20.105469 40.984375 20.28125 40.984375 C 20.457031 40.984375 20.605469 41.042969 20.730469 41.167969 C 20.851562 41.292969 20.914062 41.441406 20.914062 41.617188 Z M 20.914062 41.617188 " fill-opacity="1" fill-rule="nonzero"/><path fill="#bcbaa6" d="M 23.375 41.722656 C 23.375 41.898438 23.3125 42.046875 23.1875 42.171875 C 23.0625 42.296875 22.914062 42.359375 22.738281 42.359375 C 22.5625 42.359375 22.414062 42.296875 22.289062 42.171875 C 22.164062 42.046875 22.101562 41.898438 22.101562 41.722656 C 22.101562 41.546875 22.164062 41.398438 22.289062 41.273438 C 22.414062 41.148438 22.5625 41.085938 22.738281 41.085938 C 22.914062 41.085938 23.0625 41.148438 23.1875 41.273438 C 23.3125 41.398438 23.375 41.546875 23.375 41.722656 Z M 23.375 41.722656 " fill-opacity="1" fill-rule="nonzero"/><path fill="#bcbaa6" d="M 25.925781 41.722656 C 25.925781 41.898438 25.863281 42.046875 25.742188 42.171875 C 25.617188 42.296875 25.464844 42.359375 25.289062 42.359375 C 25.113281 42.359375 24.964844 42.296875 24.839844 42.171875 C 24.71875 42.046875 24.65625 41.898438 24.65625 41.722656 C 24.65625 41.546875 24.71875 41.398438 24.839844 41.273438 C 24.964844 41.148438 25.113281 41.085938 25.289062 41.085938 C 25.464844 41.085938 25.617188 41.148438 25.742188 41.273438 C 25.863281 41.398438 25.925781 41.546875 25.925781 41.722656 Z M 25.925781 41.722656 " fill-opacity="1" fill-rule="nonzero"/><path fill="#bcbaa6" d="M 16.796875 43.898438 C 16.796875 44.070312 16.734375 44.222656 16.609375 44.347656 C 16.484375 44.46875 16.335938 44.53125 16.160156 44.53125 C 15.984375 44.53125 15.835938 44.46875 15.710938 44.347656 C 15.585938 44.222656 15.523438 44.070312 15.523438 43.898438 C 15.523438 43.722656 15.585938 43.570312 15.710938 43.445312 C 15.835938 43.324219 15.984375 43.261719 16.160156 43.261719 C 16.335938 43.261719 16.484375 43.324219 16.609375 43.445312 C 16.734375 43.570312 16.796875 43.722656 16.796875 43.898438 Z M 16.796875 43.898438 " fill-opacity="1" fill-rule="nonzero"/><path fill="#bcbaa6" d="M 19.359375 43.898438 C 19.359375 44.070312 19.296875 44.222656 19.171875 44.347656 C 19.046875 44.46875 18.898438 44.53125 18.722656 44.53125 C 18.546875 44.53125 18.398438 44.46875 18.273438 44.347656 C 18.148438 44.222656 18.085938 44.070312 18.085938 43.898438 C 18.085938 43.722656 18.148438 43.570312 18.273438 43.445312 C 18.398438 43.324219 18.546875 43.261719 18.722656 43.261719 C 18.898438 43.261719 19.046875 43.324219 19.171875 43.445312 C 19.296875 43.570312 19.359375 43.722656 19.359375 43.898438 Z M 19.359375 43.898438 " fill-opacity="1" fill-rule="nonzero"/><path fill="#bcbaa6" d="M 21.808594 44 C 21.808594 44.175781 21.746094 44.328125 21.621094 44.449219 C 21.496094 44.574219 21.347656 44.636719 21.171875 44.636719 C 20.996094 44.636719 20.847656 44.574219 20.722656 44.449219 C 20.597656 44.328125 20.535156 44.175781 20.535156 44 C 20.535156 43.824219 20.597656 43.675781 20.722656 43.550781 C 20.847656 43.425781 20.996094 43.363281 21.171875 43.363281 C 21.347656 43.363281 21.496094 43.425781 21.621094 43.550781 C 21.746094 43.675781 21.808594 43.824219 21.808594 44 Z M 21.808594 44 " fill-opacity="1" fill-rule="nonzero"/><path fill="#bcbaa6" d="M 24.371094 44 C 24.371094 44.175781 24.308594 44.328125 24.183594 44.449219 C 24.058594 44.574219 23.910156 44.636719 23.734375 44.636719 C 23.558594 44.636719 23.410156 44.574219 23.285156 44.449219 C 23.160156 44.328125 23.097656 44.175781 23.097656 44 C 23.097656 43.824219 23.160156 43.675781 23.285156 43.550781 C 23.410156 43.425781 23.558594 43.363281 23.734375 43.363281 C 23.910156 43.363281 24.058594 43.425781 24.183594 43.550781 C 24.308594 43.675781 24.371094 43.824219 24.371094 44 Z M 24.371094 44 " fill-opacity="1" fill-rule="nonzero"/><path fill="#c78d67" d="M 19.832031 34.207031 L 26.230469 23.074219 L 19.832031 11.996094 L 19.832031 11.96875 L 19.824219 11.988281 L 19.816406 11.96875 L 19.816406 11.996094 L 13.417969 23.074219 L 19.816406 34.207031 L 19.816406 34.234375 L 19.824219 34.214844 L 19.832031 34.234375 Z M 19.832031 34.207031 " fill-opacity="1" fill-rule="nonzero"/><path fill="#c78d67" d="M 38.1875 14.558594 C 38.1875 14.734375 38.125 14.886719 38.003906 15.007812 C 37.878906 15.132812 37.730469 15.195312 37.554688 15.195312 C 37.378906 15.195312 37.226562 15.132812 37.101562 15.007812 C 36.980469 14.886719 36.917969 14.734375 36.917969 14.558594 C 36.917969 14.382812 36.980469 14.234375 37.101562 14.109375 C 37.226562 13.984375 37.378906 13.925781 37.554688 13.925781 C 37.730469 13.925781 37.878906 13.984375 38.003906 14.109375 C 38.125 14.234375 38.1875 14.382812 38.1875 14.558594 Z M 38.1875 14.558594 " fill-opacity="1" fill-rule="nonzero"/><path fill="#c78d67" d="M 40.75 14.558594 C 40.75 14.734375 40.691406 14.886719 40.566406 15.007812 C 40.441406 15.132812 40.292969 15.195312 40.117188 15.195312 C 39.941406 15.195312 39.789062 15.132812 39.667969 15.007812 C 39.542969 14.886719 39.480469 14.734375 39.480469 14.558594 C 39.480469 14.382812 39.542969 14.234375 39.667969 14.109375 C 39.789062 13.984375 39.941406 13.925781 40.117188 13.925781 C 40.292969 13.925781 40.441406 13.984375 40.566406 14.109375 C 40.691406 14.234375 40.75 14.382812 40.75 14.558594 Z M 40.75 14.558594 " fill-opacity="1" fill-rule="nonzero"/><path fill="#c78d67" d="M 43.199219 14.664062 C 43.199219 14.839844 43.136719 14.988281 43.015625 15.113281 C 42.890625 15.238281 42.738281 15.300781 42.5625 15.300781 C 42.390625 15.300781 42.238281 15.238281 42.113281 15.113281 C 41.992188 14.988281 41.929688 14.839844 41.929688 14.664062 C 41.929688 14.488281 41.992188 14.339844 42.113281 14.214844 C 42.238281 14.089844 42.390625 14.027344 42.5625 14.027344 C 42.738281 14.027344 42.890625 14.089844 43.015625 14.214844 C 43.136719 14.339844 43.199219 14.488281 43.199219 14.664062 Z M 43.199219 14.664062 " fill-opacity="1" fill-rule="nonzero"/><path fill="#c78d67" d="M 36.621094 16.835938 C 36.621094 17.011719 36.5625 17.164062 36.4375 17.289062 C 36.3125 17.410156 36.164062 17.472656 35.988281 17.472656 C 35.8125 17.472656 35.660156 17.410156 35.539062 17.289062 C 35.414062 17.164062 35.351562 17.011719 35.351562 16.835938 C 35.351562 16.664062 35.414062 16.511719 35.539062 16.386719 C 35.660156 16.265625 35.8125 16.203125 35.988281 16.203125 C 36.164062 16.203125 36.3125 16.265625 36.4375 16.386719 C 36.5625 16.511719 36.621094 16.664062 36.621094 16.835938 Z M 36.621094 16.835938 " fill-opacity="1" fill-rule="nonzero"/><path fill="#c78d67" d="M 39.1875 16.835938 C 39.1875 17.011719 39.125 17.164062 39 17.289062 C 38.875 17.410156 38.726562 17.472656 38.550781 17.472656 C 38.375 17.472656 38.222656 17.410156 38.101562 17.289062 C 37.976562 17.164062 37.914062 17.011719 37.914062 16.835938 C 37.914062 16.664062 37.976562 16.511719 38.101562 16.386719 C 38.222656 16.265625 38.375 16.203125 38.550781 16.203125 C 38.726562 16.203125 38.875 16.265625 39 16.386719 C 39.125 16.511719 39.1875 16.664062 39.1875 16.835938 Z M 39.1875 16.835938 " fill-opacity="1" fill-rule="nonzero"/><path fill="#c78d67" d="M 41.632812 16.941406 C 41.632812 17.117188 41.570312 17.269531 41.449219 17.390625 C 41.324219 17.515625 41.175781 17.578125 41 17.578125 C 40.824219 17.578125 40.671875 17.515625 40.546875 17.390625 C 40.425781 17.269531 40.363281 17.117188 40.363281 16.941406 C 40.363281 16.765625 40.425781 16.617188 40.546875 16.492188 C 40.671875 16.367188 40.824219 16.304688 41 16.304688 C 41.175781 16.304688 41.324219 16.367188 41.449219 16.492188 C 41.570312 16.617188 41.632812 16.765625 41.632812 16.941406 Z M 41.632812 16.941406 " fill-opacity="1" fill-rule="nonzero"/><path fill="#c78d67" d="M 38.1875 18.964844 C 38.1875 19.140625 38.125 19.289062 38.003906 19.414062 C 37.878906 19.539062 37.730469 19.597656 37.554688 19.597656 C 37.378906 19.597656 37.226562 19.539062 37.101562 19.414062 C 36.980469 19.289062 36.917969 19.140625 36.917969 18.964844 C 36.917969 18.789062 36.980469 18.636719 37.101562 18.515625 C 37.226562 18.390625 37.378906 18.328125 37.554688 18.328125 C 37.730469 18.328125 37.878906 18.390625 38.003906 18.515625 C 38.125 18.636719 38.1875 18.789062 38.1875 18.964844 Z M 38.1875 18.964844 " fill-opacity="1" fill-rule="nonzero"/><path fill="#c78d67" d="M 40.75 18.964844 C 40.75 19.140625 40.691406 19.289062 40.566406 19.414062 C 40.441406 19.539062 40.292969 19.597656 40.117188 19.597656 C 39.941406 19.597656 39.789062 19.539062 39.667969 19.414062 C 39.542969 19.289062 39.480469 19.140625 39.480469 18.964844 C 39.480469 18.789062 39.542969 18.636719 39.667969 18.515625 C 39.789062 18.390625 39.941406 18.328125 40.117188 18.328125 C 40.292969 18.328125 40.441406 18.390625 40.566406 18.515625 C 40.691406 18.636719 40.75 18.789062 40.75 18.964844 Z M 40.75 18.964844 " fill-opacity="1" fill-rule="nonzero"/><path fill="#c78d67" d="M 36.621094 21.242188 C 36.621094 21.417969 36.5625 21.566406 36.4375 21.691406 C 36.3125 21.816406 36.164062 21.878906 35.988281 21.878906 C 35.8125 21.878906 35.660156 21.816406 35.539062 21.691406 C 35.414062 21.566406 35.351562 21.417969 35.351562 21.242188 C 35.351562 21.066406 35.414062 20.917969 35.539062 20.792969 C 35.660156 20.667969 35.8125 20.605469 35.988281 20.605469 C 36.164062 20.605469 36.3125 20.667969 36.4375 20.792969 C 36.5625 20.917969 36.621094 21.066406 36.621094 21.242188 Z M 36.621094 21.242188 " fill-opacity="1" fill-rule="nonzero"/><path fill="#c78d67" d="M 39.1875 21.242188 C 39.1875 21.417969 39.125 21.566406 39 21.691406 C 38.875 21.816406 38.726562 21.878906 38.550781 21.878906 C 38.375 21.878906 38.222656 21.816406 38.101562 21.691406 C 37.976562 21.566406 37.914062 21.417969 37.914062 21.242188 C 37.914062 21.066406 37.976562 20.917969 38.101562 20.792969 C 38.222656 20.667969 38.375 20.605469 38.550781 20.605469 C 38.726562 20.605469 38.875 20.667969 39 20.792969 C 39.125 20.917969 39.1875 21.066406 39.1875 21.242188 Z M 39.1875 21.242188 " fill-opacity="1" fill-rule="nonzero"/><path fill="#f3864a" d="M 26.238281 45.273438 L 19.824219 34.167969 L 26.238281 23.054688 L 39.0625 23.054688 L 45.476562 34.167969 L 39.0625 45.273438 Z M 26.238281 45.273438 " fill-opacity="1" fill-rule="nonzero"/><g clip-path="url(#914049893f)"><path fill="#f3864a" d="M 9.175781 46.15625 L 11.8125 41.5625 L 9.175781 36.996094 L 9.175781 36.976562 L 9.164062 36.988281 L 9.164062 36.976562 L 9.164062 36.996094 L 6.527344 41.5625 L 9.164062 46.15625 L 9.164062 46.164062 L 9.175781 46.164062 Z M 9.175781 46.15625 " fill-opacity="1" fill-rule="nonzero"/></g></svg>